<svg width="118" height="114" viewBox="0 0 118 114" fill="none" xmlns="http://www.w3.org/2000/svg">
<path fillRule="evenodd" clipRule="evenodd" d="M49.7715 113.373C22.3281 113.373 0 91.0451 0 63.6016C0 36.1581 22.3281 13.8301 49.7715 13.8301C77.215 13.8301 99.6122 36.1581 99.6122 63.6016C99.6122 91.0451 77.215 113.373 49.7715 113.373ZM49.7715 16.5952C23.8489 16.5952 2.76508 37.6789 2.76508 63.6016C2.76508 89.5243 23.8489 110.608 49.7715 110.608C75.6942 110.608 96.8471 89.5243 96.8471 63.6016C96.8471 37.6789 75.6942 16.5952 49.7715 16.5952Z" fill="#4F46E5"/>
<path fillRule="evenodd" clipRule="evenodd" d="M49.7716 100.792C29.3099 100.792 12.5812 84.1323 12.5812 63.6015C12.5812 43.0708 29.3099 26.4111 49.7716 26.4111C70.3023 26.4111 86.962 43.0708 86.962 63.6015C86.962 84.1323 70.3023 100.792 49.7716 100.792ZM49.7716 29.1762C30.8307 29.1762 15.3463 44.6607 15.3463 63.6015C15.3463 82.6115 30.8307 98.0268 49.7716 98.0268C68.7815 98.0268 84.1969 82.6115 84.1969 63.6015C84.1969 44.6607 68.7815 29.1762 49.7716 29.1762Z" fill="#4F46E5"/>
<path fillRule="evenodd" clipRule="evenodd" d="M63.5279 64.9842H50.0481C49.2877 64.9842 48.6655 64.3621 48.6655 63.6017V47.5642C48.6655 46.8038 49.2877 46.1816 50.0481 46.1816C50.8085 46.1816 51.4306 46.8038 51.4306 47.5642V62.2191H63.5279C64.2883 62.2191 64.9104 62.8413 64.9104 63.6017C64.9104 64.3621 64.2883 64.9842 63.5279 64.9842Z" fill="#4F46E5"/>
<path fillRule="evenodd" clipRule="evenodd" d="M31.038 75.9753C30.5541 75.9753 30.0702 75.6988 29.8629 75.284C29.4481 74.5928 29.7246 73.7632 30.3468 73.3485L49.3567 62.4264C50.048 62.0116 50.8775 62.2881 51.2231 62.9103C51.6379 63.6016 51.4305 64.4311 50.7393 64.7767L31.7293 75.7679C31.5219 75.9062 31.3145 75.9753 31.038 75.9753ZM97.9531 22.1944H84.8881C84.2659 22.1944 83.782 21.8488 83.5746 21.2958C83.3673 20.7427 83.5746 20.1206 83.9894 19.775L93.2524 12.4475H84.0585C83.2981 12.4475 82.676 11.8253 82.676 11.0649C82.676 10.3045 83.2981 9.6824 84.0585 9.6824H97.1927C97.7457 9.6824 98.2987 10.028 98.5061 10.5811C98.6444 11.1341 98.5061 11.7562 98.0222 12.1018L88.8283 19.4293H97.9531C98.7135 19.4293 99.3356 20.0515 99.3356 20.8119C99.3356 21.5723 98.7135 22.1944 97.9531 22.1944ZM116.617 13.1388H103.483C102.93 13.1388 102.377 12.7931 102.17 12.2401C102.032 11.6871 102.17 11.0649 102.654 10.6502L111.848 3.3227H102.723C101.962 3.3227 101.34 2.70056 101.34 1.94016C101.34 1.17976 101.962 0.557617 102.723 0.557617H115.788C116.41 0.557617 116.894 0.97238 117.101 1.5254C117.309 2.07841 117.101 2.70056 116.617 3.04619L107.424 10.3737H116.617C117.378 10.3737 118 10.9958 118 11.7562C118 12.5166 117.378 13.1388 116.617 13.1388Z" fill="#4F46E5"/>
<path fillRule="evenodd" clipRule="evenodd" d="M84.1969 62.219C83.4365 44.3151 69.0581 29.9366 51.1541 29.2454V35.3977C51.1541 36.1581 50.532 36.7802 49.7716 36.7802C49.0112 36.7802 48.389 36.1581 48.389 35.3977V29.2454C30.5542 29.9366 16.1067 44.3151 15.4154 62.219H21.5677C22.3281 62.219 22.9503 62.8411 22.9503 63.6015C22.9503 64.3619 22.3281 64.9841 21.5677 64.9841H15.4154C16.1067 82.888 30.5542 97.2664 48.389 98.0268V91.8054C48.389 91.045 49.0112 90.4229 49.7716 90.4229C50.532 90.4229 51.1541 91.045 51.1541 91.8054V98.0268C69.0581 97.2664 83.4365 82.888 84.1969 64.9841H77.9754C77.215 64.9841 76.5929 64.3619 76.5929 63.6015C76.5929 62.8411 77.215 62.219 77.9754 62.219H84.1969ZM51.4306 62.219H63.5279C64.2883 62.219 64.9104 62.8411 64.9104 63.6015C64.9104 64.3619 64.2883 64.9841 63.5279 64.9841H50.3937L31.7294 75.7679C31.522 75.9062 31.3146 75.9753 31.0381 75.9753C30.5542 75.9753 30.0704 75.6988 29.863 75.284C29.4482 74.5928 29.7247 73.7632 30.3469 73.3485L48.6656 62.8411V47.564C48.6656 46.8036 49.2877 46.1815 50.0481 46.1815C50.8085 46.1815 51.4306 46.8036 51.4306 47.564V62.219Z" fill="white"/>
<path fillRule="evenodd" clipRule="evenodd" d="M12.5812 63.6017C12.5812 43.0709 29.31 26.4113 49.7716 26.4113C70.3023 26.4113 86.962 43.0709 86.962 63.6017C86.962 84.1324 70.3023 100.792 49.7716 100.792C29.31 100.792 12.5812 84.1324 12.5812 63.6017ZM2.76514 63.6017C2.76514 89.5243 23.8489 110.608 49.7716 110.608C75.6943 110.608 96.8472 89.5243 96.8472 63.6017C96.8472 37.679 75.6943 16.5952 49.7716 16.5952C23.8489 16.5952 2.76514 37.679 2.76514 63.6017Z" fill="#4F46E5" fill-opacity="0.16"/>
<path fillRule="evenodd" clipRule="evenodd" d="M49.7716 36.7802C49.0112 36.7802 48.389 36.1581 48.389 35.3977V27.7937C48.389 27.0333 49.0112 26.4111 49.7716 26.4111C50.532 26.4111 51.1541 27.0333 51.1541 27.7937V35.3977C51.1541 36.1581 50.532 36.7802 49.7716 36.7802ZM85.5794 64.9841H77.9754C77.215 64.9841 76.5929 64.3619 76.5929 63.6015C76.5929 62.8411 77.215 62.219 77.9754 62.219H85.5794C86.3398 62.219 86.962 62.8411 86.962 63.6015C86.962 64.3619 86.3398 64.9841 85.5794 64.9841ZM49.7716 100.792C49.0112 100.792 48.389 100.17 48.389 99.4094V91.8054C48.389 91.045 49.0112 90.4228 49.7716 90.4228C50.532 90.4228 51.1541 91.045 51.1541 91.8054V99.4094C51.1541 100.17 50.532 100.792 49.7716 100.792ZM21.5677 64.9841H13.9637C13.2033 64.9841 12.5812 64.3619 12.5812 63.6015C12.5812 62.8411 13.2033 62.219 13.9637 62.219H21.5677C22.3281 62.219 22.9502 62.8411 22.9502 63.6015C22.9502 64.3619 22.3281 64.9841 21.5677 64.9841Z" fill="#4F46E5"/>
</svg>
